/* XPM */
static char *_d43f0a7350d46fbd6150d2b2da88de1ZDgXYy3z6GHD1Xpt[] = {
/* columns rows colors chars-per-pixel */
"32 32 5 1 ",
"  c None",
". c #577572",
"X c #859F9C",
"o c #ACBCBA",
"O c #EEEEEE",
/* pixels */
"                                ",
"                                ",
"                                ",
"                                ",
"                                ",
"                                ",
"                                ",
"                                ",
"                                ",
"              ....              ",
"              ....              ",
"            ..OOOO..            ",
"            ..OOOO..            ",
"          ..XXooooOO..          ",
"          ..XXooooOO..          ",
"          ..XXooooOO..          ",
"          ..XXooooOO..          ",
"        ..XXooooooooOO..        ",
"        ..XXooooooooOO..        ",
"        ..XXooooooooOO..        ",
"        ..XXooooooooOO..        ",
"          ..XXooooOO..          ",
"          ..XXooooOO..          ",
"          ..XXooooOO..          ",
"          ..XXooooOO..          ",
"            ..XXXX..            ",
"            ..XXXX..            ",
"              ....              ",
"              ....              ",
"                                ",
"                                ",
"                                "
};
