/* XPM */
static char *_2419ebb49234c12d50b4206decc2e5eUKNXsBc1m0SPZEHi[] = {
/* columns rows colors chars-per-pixel */
"32 32 5 1 ",
"  c black",
". c #3B4040",
"X c #545B5B",
"o c #788382",
"O c #ACBCBA",
/* pixels */
"OOOOOOOOOOOOOOOOOOOOOOOOOOOOOOOO",
"OOOOOOOOOOOOOOo OOOOOOOOOOOOOOOO",
"OOOOOOOOOOoXXX..XXoOOOOOOOOOOOOO",
"OOOOOOOOOo Xo X XXXooOOOOOOOOOOO",
"OOOOOOOO X    o   XXXooOOOOOOOOO",
"OOOOOOO oX o o oo  oX oooOOOOOOO",
"OOOOOoX oo o         o XXOOOOOOO",
"OOOOOX o     X      o o o oOOOOO",
"OOOOXXX o              o oo OOOO",
"OOOO.X                   o oOOOO",
"OOOO                    XoooOOOO",
"OOooXo                 X  XXOOOO",
"OOoXX                     XXXOOO",
"OOo.                        oOOO",
"OOX.                        oOOO",
"OO  X X                    XoOOO",
"OOo   .                    X OOO",
"OOoX .                     X OOO",
"OOoX .                     XoOOO",
"Ooo  X                   X  oOOO",
"Oo o X                   XXoOOOO",
"Oo ooXX                    OOOOO",
"OOOo                      oOOOOO",
"OOOoOXX                XXoOOOOOO",
"OOOOO  X                oOOOOOOO",
"OOOOOo.o               . OOOOOOO",
"OOOOOO X   .         .XXOOOOOOOO",
"OOOOOOOOXXX    X  XXXX oOOOOOOOO",
"OOOOOOOOOo oo ooX.o ooOOOOOOOOOO",
"OOOOOOOOOOOOOOOOOOOOOOOOOOOOOOOO",
"OOOOOOOOOOOOOOOOOOOOOOOOOOOOOOOO",
"OOOOOOOOOOOOOOOOOOOOOOOOOOOOOOOO"
};
