/* XPM */
static char *_f24ffb7612b4795b7e74f792cbf6656GxLfMogerzTmu2dG[] = {
/* columns rows colors chars-per-pixel */
"32 32 3 1 ",
"  c None",
". c #343332",
"X c #E2E1DF",
/* pixels */
"                                ",
"                                ",
"            ..........          ",
"            ..........          ",
"            ..........          ",
"            ..........          ",
"            ..XX..XX..          ",
"            ..XX..XX..          ",
"            ..XX..XX..          ",
"            ..XX..XX..          ",
"            ..........          ",
"            ..........          ",
"            ..........          ",
"            ..........          ",
"            ..........          ",
"            ..........          ",
"            ..........          ",
"            ..........          ",
"            ..      ..          ",
"            ..      ..          ",
"            ..      ..          ",
"            ..      ..          ",
"            ..      ..          ",
"            ..      ..          ",
"            ..      ..          ",
"            ..      ..          ",
"            ..      ..          ",
"            ..      ..          ",
"            ..      ..          ",
"            ..      ..          ",
"            ..      ..          ",
"            ..      ..          "
};
