/* XPM */
static char *f7295d1a53664491b5e7ec93a0065f8a5R43wWUenZoaWsNW[] = {
/* columns rows colors chars-per-pixel */
"100 100 8 1 ",
"  c None",
". c #312439",
"X c #9E5657",
"o c #BE8166",
"O c #BDA1B9",
"+ c #F4C6A1",
"@ c #BAC1D9",
"# c #FDFCF7",
/* pixels */
"                                                                                                    ",
"                                                                                                    ",
"                                                                                                    ",
"                                                                                                    ",
"                                                                                                    ",
"                                                                                                    ",
"                                                                                                    ",
"                                                                                                    ",
"                                                                                                    ",
"                                                                                                    ",
"                                                                                                    ",
"                                                                                                    ",
"                                                                                                    ",
"                                                                                                    ",
"                                                                                                    ",
"                                                                                                    ",
"                                                                                                    ",
"                                                                                                    ",
"                                                                                                    ",
"                                                                                                    ",
"                        ..........                                 ..........                       ",
"                        ..........                                 ..........                       ",
"                     ...#######+++..      .................      ..+++#######...                    ",
"                     ...#######+++..      .................      ..+++#######...                    ",
"                     ...#######+++..      .................      ..+++#######...                    ",
"                   ..###+++++++oooXX......+++++#######+++++......XXooo+++++++###..                  ",
"                   ..###+++++++oooXX......+++++#######+++++......XXooo+++++++###..                  ",
"                   ..###+++++ooXXXoo...+++++++++++++++++++++++...ooXXXoo+++++###..                  ",
"                   ..###+++++ooXXXoo...+++++++++++++++++++++++...ooXXXoo+++++###..                  ",
"                   ..###+++++ooXXXoo...+++++++++++++++++++++++...ooXXXoo+++++###..                  ",
"                ...##+++++oooooXXX#####+++++++++++++++++++++++#####XXXooooo+++++##...               ",
"                ...##+++++oooooXXX#####+++++++++++++++++++++++#####XXXooooo+++++##...               ",
"                ...+++++oooooXX###+++++++++++++++++++++++++++++++++###XXooooo+++++...               ",
"                ...+++++oooooXX###+++++++++++++++++++++++++++++++++###XXooooo+++++...               ",
"                ...+++++oooooXX###+++++++++++++++++++++++++++++++++###XXooooo+++++...               ",
"                ...oooooXXXXX##+++++++++++++++++++++++++++++++++++++++##XXXXXooooo...               ",
"                ...oooooXXXXX##+++++++++++++++++++++++++++++++++++++++##XXXXXooooo...               ",
"                   .....ooooo+++++++++++++++++++++++++++++++++++++++++++ooooo.....                  ",
"                   .....ooooo+++++++++++++++++++++++++++++++++++++++++++ooooo.....                  ",
"                   .....ooooo+++++++++++++++++++++++++++++++++++++++++++ooooo.....                  ",
"                        ..ooo+++++++++++++++++++++++++++++++++++++++++++ooo..                       ",
"                        ..ooo+++++++++++++++++++++++++++++++++++++++++++ooo..                       ",
"                        ..ooo+++++++++++++++++++++++++++++++++++++++++++ooo..                       ",
"                        ..ooo+++++++++++++++++++++++++++++++++++++++++++ooo..                       ",
"                        ..ooo+++++++++++++++++++++++++++++++++++++++++++ooo..                       ",
"                        ..ooo+++++++......+++++++++++++++++......+++++++ooo..                       ",
"                        ..ooo+++++++......+++++++++++++++++......+++++++ooo..                       ",
"                        ..ooo+++++..###.....+++#######+++.....###..+++++ooo..                       ",
"                        ..ooo+++++..###.....+++#######+++.....###..+++++ooo..                       ",
"                        ..ooo+++++..........###.......###..........+++++ooo..                       ",
"                        ..ooo+++++..........###.......###..........+++++ooo..                       ",
"                        ..ooo+++++..........###.......###..........+++++ooo..                       ",
"                        ..ooo+++++++......#######...#######......+++++++ooo..                       ",
"                        ..ooo+++++++......#######...#######......+++++++ooo..                       ",
"                        ..ooo+++++++++++++##...##@@@##...##+++++++++++++ooo..                       ",
"                        ..ooo+++++++++++++##...##@@@##...##+++++++++++++ooo..                       ",
"                        ..ooo+++++++++++++##...##@@@##...##+++++++++++++ooo..                       ",
"                        ..OOOXXooo++++++++#####.......#####++++++++oooXXOOO..                       ",
"                        ..OOOXXooo++++++++#####.......#####++++++++oooXXOOO..                       ",
"                          ...OOXXXoo++++++#################++++++ooXXXOO...                         ",
"                          ...OOXXXoo++++++#################++++++ooXXXOO...                         ",
"                          ...OOXXXoo++++++#################++++++ooXXXOO...                         ",
"                             ..OOOOOXXXXXX@@@@@@@@@@@@@@@@@XXXXXXOOOOO..                            ",
"                             ..OOOOOXXXXXX@@@@@@@@@@@@@@@@@XXXXXXOOOOO..                            ",
"                               .....OOOXXXXXXXXXXXXXXXXXXXXXXXOOO.....                              ",
"                               .....OOOXXXXXXXXXXXXXXXXXXXXXXXOOO.....                              ",
"                               .....OOOXXXXXXXXXXXXXXXXXXXXXXXOOO.....                              ",
"                                    ...OOOOOOOOOOOOOOOOOOOOOOO...                                   ",
"                                    ...OOOOOOOOOOOOOOOOOOOOOOO...                                   ",
"                                  ..ooo.......................ooo..                                 ",
"                                  ..ooo.......................ooo..                                 ",
"                                  ..ooo.......................ooo..                                 ",
"                               ...oooooXXXXXXXXoooooooXXXXXXXXooooo...                              ",
"                               ...oooooXXXXXXXXoooooooXXXXXXXXooooo...                              ",
"                             ..oooooXXXooo+++++++###+++++++oooXXXooooo..                            ",
"                             ..oooooXXXooo+++++++###+++++++oooXXXooooo..                            ",
"                        .....##+++oo...+++++#############+++++...oo+++##.....                       ",
"                        .....##+++oo...+++++#############+++++...oo+++##.....                       ",
"                        .....##+++oo...+++++#############+++++...oo+++##.....                       ",
"                     ...#####+++++oo...+++++#############+++++...oo+++++#####...                    ",
"                     ...#####+++++oo...+++++#############+++++...oo+++++#####...                    ",
"                     ...+++++++ooo........#################........ooo+++++++...                    ",
"                     ...+++++++ooo........#################........ooo+++++++...                    ",
"                     ...+++++++ooo........#################........ooo+++++++...                    ",
"                     ...ooooooo...oo###ooo..#############..ooo###oo...ooooooo...                    ",
"                     ...ooooooo...oo###ooo..#############..ooo###oo...ooooooo...                    ",
"                        .......ooo########oo...#######...oo########ooo.......                       ",
"                        .......ooo########oo...#######...oo########ooo.......                       ",
"                        .......ooo########oo...#######...oo########ooo.......                       ",
"                             ..ooo########oo...@@###@@...oo########ooo..                            ",
"                             ..ooo########oo...@@###@@...oo########ooo..                            ",
"                             ..ooo########oo...@@@@@@@...oo########ooo..                            ",
"                             ..ooo########oo...@@@@@@@...oo########ooo..                            ",
"                             ..ooo########oo...@@@@@@@...oo########ooo..                            ",
"                             ..XXX@@@@@@@@XX...@@@@@@@...XX@@@@@@@@XXX..                            ",
"                             ..XXX@@@@@@@@XX...@@@@@@@...XX@@@@@@@@XXX..                            ",
"                             ..XXXXXXXXXXXXX...OOOOOOO...XXXXXXXXXXXXX..                            ",
"                             ..XXXXXXXXXXXXX...OOOOOOO...XXXXXXXXXXXXX..                            ",
"                             ..XXXXXXXXXXXXX...OOOOOOO...XXXXXXXXXXXXX..                            ",
"                               .......................................                              "
};
