/* XPM */
static char *dfb22884ea904c22fe800aae5b00e6b6MsRi5TtxCByWutB8[] = {
/* columns rows colors chars-per-pixel */
"32 32 6 1 ",
"  c #313635",
". c #577572",
"X c #6C8C88",
"o c #859F9C",
"O c #ACBCBA",
"+ c #EEEEEE",
/* pixels */
"XX++++++++++++++++++++++++++++XX",
"XX++++++++++++++++++++++++++++XX",
"  ooOOOOOOOOOOOOOOOOOOOOOOOOOO++",
"  ooOOOOOOOOOOOOOOOOOOOOOOOOOO++",
"  ..OOooOOOOooooOOOOooOOooOOOO++",
"  ..OOooOOOOooooOOOOooOOooOOOO++",
"  ..ooOOooooooOOooooOOooooooOO++",
"  ..ooOOooooooOOooooOOooooooOO++",
"  ..ooooooooooooOOooooooooOOOO++",
"  ..ooooooooooooOOooooooooOOOO++",
"  ..ooooooooooooooooOOooOOOOOO++",
"  ..ooooooooooooooooOOooOOOOOO++",
"  ..ooooooooooooooooooooooooOO++",
"  ..ooooooooooooooooooooooooOO++",
"  ....ooooooooooooooooOOooOOOO++",
"  ....ooooooooooooooooOOooOOOO++",
"  ..oo..ooooooooooooooooooOOOO++",
"  ..oo..ooooooooooooooooooOOOO++",
"  ....oo..ooooooooooooooOOooOO++",
"  ....oo..ooooooooooooooOOooOO++",
"  ..ooooooooooooooooooooooOOOO++",
"  ..ooooooooooooooooooooooOOOO++",
"  ....oo..ooooooooooooooooOOOO++",
"  ....oo..ooooooooooooooooOOOO++",
"  ..oo..oooo..oo..oo..ooooooOO++",
"  ..oo..oooo..oo..oo..ooooooOO++",
"  ..........oo..oo..oooo..ooOO++",
"  ..........oo..oo..oooo..ooOO++",
"  ............................  ",
"  ............................  ",
"XX                            XX",
"XX                            XX"
};
